<svg width="28" height="28" fill="none" xmlns="http://www.w3.org/2000/svg"><path fill-rule="evenodd" clip-rule="evenodd" d="M13 3V0h2v3h-2zm5.634.974 1.5-2.598 1.732 1-1.5 2.598-1.732-1zM14 21a7 7 0 1 0 0-14 7 7 0 0 0 0 14zm0 2a9 9 0 1 0 0-18 9 9 0 0 0 0 18zm11-10h3v2h-3v-2zm.624-6.866-2.598 1.5 1 1.732 2.598-1.5-1-1.732zM6.134 2.376l1.5 2.598 1.732-1-1.5-2.598-1.732 1zm-2.16 6.99-2.598-1.5 1-1.732 2.598 1.5-1 1.732zM13 25v3h2v-3h-2zM3 13H0v2h3v-2zm-1.624 7.134 2.598-1.5 1 1.732-2.598 1.5-1-1.732zm6.258 2.892-1.5 2.598 1.732 1 1.5-2.598-1.732-1zm12.5 3.598-1.5-2.598 1.732-1 1.5 2.598-1.732 1zm2.892-6.258 2.598 1.5 1-1.732-2.598-1.5-1 1.732z" fill="#fff"/></svg>