<svg width="28" height="28" fill="none" xmlns="http://www.w3.org/2000/svg"><path fill-rule="evenodd" clip-rule="evenodd" d="M13 3V0h2v3h-2zm7.862 16.824A5 5 0 0 1 17 28H9.5a7.5 7.5 0 0 1-4.487-13.51 9 9 0 1 1 15.849 5.334zm-1.554-1.26A4.978 4.978 0 0 0 17 18c-.846 0-1.642.21-2.34.58a5.487 5.487 0 0 1 .338 2.186A3 3 0 1 1 17 26H9.5a5.5 5.5 0 1 1 5.156-7.418 4.969 4.969 0 0 1 1.923-.565 7.503 7.503 0 0 0-9.555-4.599 7 7 0 1 1 12.284 5.145zM28 13h-3v2h3v-2zm-4.974-5.366 2.598-1.5 1 1.732-2.598 1.5-1-1.732zm-2.892-6.258-1.5 2.598 1.732 1 1.5-2.598-1.732-1zm-12.5 3.598-1.5-2.598 1.732-1 1.5 2.598-1.732 1zM1.376 7.866l2.598 1.5 1-1.732-2.598-1.5-1 1.732zM0 13h3v2H0v-2zm23.026 7.366 2.598 1.5 1-1.732-2.598-1.5-1 1.732z" fill="#fff"/></svg>