<svg width="29" height="29" fill="none" xmlns="http://www.w3.org/2000/svg"><path fill-rule="evenodd" clip-rule="evenodd" d="M23.11 11.312a5.96 5.96 0 0 0 3.984-1.703 5.863 5.863 0 0 0 1.285-1.92c.402 1.16.62 2.406.62 3.702 0 5.1-3.383 9.418-8.049 10.87A5.003 5.003 0 0 1 15.724 28h-7.22v-.002H8.5c-4.145 0-7.504-3.328-7.504-7.433 0-3.309 2.182-6.113 5.2-7.076A11.35 11.35 0 0 1 6 11.391C6 5.1 11.149 0 17.5 0c.897 0 1.77.102 2.608.294a5.95 5.95 0 0 0-1.82 1.465 5.839 5.839 0 0 0 .664 8.053 5.967 5.967 0 0 0 4.157 1.5zM8.164 13.14a7.503 7.503 0 0 1 7.387 4.882 5 5 0 0 1 4.71 2.357c3.652-1.094 6.362-4.302 6.702-8.165a8.005 8.005 0 0 1-3.789 1.094 7.994 7.994 0 0 1-5.57-2.01 7.846 7.846 0 0 1-2.617-5.267 7.807 7.807 0 0 1 .694-3.86C11.293 3.012 8 6.834 8 11.392c0 .598.056 1.182.165 1.75zM8.525 26h-.026c-3.058 0-5.504-2.45-5.504-5.433 0-2.983 2.446-5.433 5.504-5.433a5.5 5.5 0 0 1 5.157 3.533l.005-.003a5.392 5.392 0 0 1 .341 2.103 3.003 3.003 0 1 1 2 5.242H16V26h-.213l-.02-.001h-3.773l.001.001h-.007L11.987 26H8.525z" fill="#fff"/></svg>