<svg width="28" height="25" fill="none" xmlns="http://www.w3.org/2000/svg"><path fill-rule="evenodd" clip-rule="evenodd" d="M26 14.108a5.048 5.048 0 0 1-3.5 4.822V21c3.145-.692 5.5-3.515 5.5-6.892 0-3.896-3.134-7.054-7-7.054-.198 0-.395.008-.589.025C18.977 2.956 15.081 0 10.5 0 4.701 0 0 4.737 0 10.581c0 4.417 2.685 8.201 6.5 9.787v-2.214A8.586 8.586 0 0 1 2 10.581C2 5.827 5.82 2 10.5 2c3.623 0 6.731 2.294 7.95 5.537l.008-.004c.231.626.393 1.286.477 1.971.63-.29 1.33-.45 2.065-.45 2.747 0 5 2.248 5 5.054zM21 15H11v2h10v-2zm-2 4H9v2h10v-2zm-8 4h10v2H11v-2z" fill="#fff"/></svg>