<svg width="28" height="29" fill="none" xmlns="http://www.w3.org/2000/svg"><path fill-rule="evenodd" clip-rule="evenodd" d="M28 15c0 3.603-2.625 6.57-6 6.957v-2.02c2.22-.376 4-2.388 4-4.937 0-2.83-2.195-5-4.75-5a4.54 4.54 0 0 0-2.04.486 9.247 9.247 0 0 0-.25-1.696l-.003.001C18.009 4.85 14.584 2 10.608 2 5.922 2 2 5.96 2 11c0 4.066 2.553 7.43 6 8.577v2.088C3.402 20.46 0 16.142 0 11 0 4.925 4.75 0 10.608 0c2.055 0 3.973.606 5.598 1.654a7.202 7.202 0 0 1 10.65 9.445A7.15 7.15 0 0 1 28 15zm-2.546-5.476a5.202 5.202 0 0 0-7.632-6.589 11.072 11.072 0 0 1 2.999 5.079 6.574 6.574 0 0 1 4.633 1.51zM12.002 25.456c0 .336-.258.546-.5.546s-.5-.21-.5-.546c0-.428.173-1.012.472-1.662.1.21.192.42.27.623.195.51.258.855.258 1.039zM11.5 20s-.597.73-1.208 1.757c-.638 1.074-1.29 2.472-1.29 3.699 0 1.406 1.12 2.546 2.5 2.546 1.381 0 2.5-1.14 2.5-2.546 0-1.118-.684-2.558-1.337-3.678A19.973 19.973 0 0 0 11.5 20zm6.002 3.002c.242 0 .5-.21.5-.546 0-.184-.063-.53-.258-1.04a8.774 8.774 0 0 0-.27-.622c-.299.65-.473 1.234-.472 1.662 0 .336.258.546.5.546zm-1.21-4.245C16.902 17.73 17.5 17 17.5 17s.57.755 1.166 1.778c.652 1.12 1.336 2.56 1.336 3.678 0 1.406-1.118 2.546-2.5 2.546-1.38 0-2.5-1.14-2.5-2.546 0-1.227.652-2.625 1.29-3.699z" fill="#fff"/></svg>