<svg width="29" height="29" fill="none" xmlns="http://www.w3.org/2000/svg"><path fill-rule="evenodd" clip-rule="evenodd" d="M28 15c0 3.603-2.625 6.57-6 6.957v-2.02c2.22-.376 4-2.388 4-4.937 0-2.83-2.195-5-4.75-5a4.54 4.54 0 0 0-2.04.486 9.247 9.247 0 0 0-.25-1.696l-.003.001C18.009 4.85 14.584 2 10.608 2 5.922 2 2 5.96 2 11c0 4.066 2.553 7.43 6 8.577v2.088C3.402 20.46 0 16.142 0 11 0 4.925 4.75 0 10.608 0c2.793 0 5.334 1.12 7.229 2.949a5.372 5.372 0 0 1 7.05-2.45 2.812 2.812 0 0 0-2.207 3.699l.008.03a2.165 2.165 0 0 0 .803 1.17 2.812 2.812 0 0 0 4.423-.992c.14.761.117 1.564-.096 2.361a5.353 5.353 0 0 1-2.087 2.998A7.097 7.097 0 0 1 28 15zm-4.17-6.47a3.39 3.39 0 0 0 1.076-.665 4.208 4.208 0 0 1-4.21-5.252 3.36 3.36 0 0 0-1.374 2.112c.665.99 1.176 2.098 1.499 3.289a6.523 6.523 0 0 1 3.009.516zM12.002 25.456c0 .336-.258.546-.5.546s-.5-.21-.5-.546c0-.428.173-1.012.472-1.662.1.21.192.42.27.623.195.51.258.855.258 1.039zM11.5 20s-.597.73-1.208 1.757c-.638 1.074-1.29 2.472-1.29 3.699 0 1.406 1.12 2.546 2.5 2.546 1.381 0 2.5-1.14 2.5-2.546 0-1.118-.684-2.558-1.337-3.678A19.98 19.98 0 0 0 11.5 20zm6.002 3.002c.242 0 .5-.21.5-.546 0-.184-.063-.53-.258-1.04a8.814 8.814 0 0 0-.27-.622c-.299.65-.473 1.234-.472 1.662 0 .336.258.546.5.546zm-1.21-4.245C16.902 17.73 17.5 17 17.5 17s.57.755 1.166 1.778c.652 1.12 1.336 2.56 1.336 3.678 0 1.406-1.118 2.546-2.5 2.546-1.38 0-2.5-1.14-2.5-2.546 0-1.227.652-2.625 1.29-3.699z" fill="#fff"/></svg>