<svg width="28" height="28" fill="none" xmlns="http://www.w3.org/2000/svg"><path fill-rule="evenodd" clip-rule="evenodd" d="M15.636 0v2.435h2V0h-2zM28 10.364h-2.435v2H28v-2zm-4.131-4.33 2.108-1.218 1 1.732-2.108 1.218-1-1.732zm-2.417-5.012-1.218 2.11 1.733 1 1.217-2.11-1.732-1zm-10.146 3.11-1.218-2.11 1.732-1 1.218 2.11-1.732 1zM28 20.75c0-3.026-1.79-5.62-4.334-6.706a7.576 7.576 0 0 0-12.688-7.783 10.308 10.308 0 0 0-.478-.011C4.701 6.25 0 11.119 0 17.125S4.701 28 10.5 28c.066 0 .132 0 .197-.002V28H21.241v-.004C24.996 27.864 28 24.67 28 20.75zm-5.846-9.386c0 .77-.157 1.505-.44 2.173a6.824 6.824 0 0 0-1.303-.012c-1.106-3.268-3.677-5.823-6.898-6.82a5.576 5.576 0 0 1 8.64 4.66zM10.5 26h10.504C23.698 25.998 26 23.715 26 20.75c0-2.966-2.304-5.25-5-5.25-.73 0-1.432.168-2.066.47a9.037 9.037 0 0 0-.479-1.976l.003-.001C17.237 10.61 14.098 8.25 10.5 8.25c-4.629 0-8.5 3.907-8.5 8.875S5.871 26 10.5 26z" fill="#fff"/></svg>