<svg width="28" height="28" fill="none" xmlns="http://www.w3.org/2000/svg"><path fill-rule="evenodd" clip-rule="evenodd" d="M23.865 13.974a6.934 6.934 0 0 0 2.068-4.016 6.54 6.54 0 0 1-.412.167c-.815.297-1.69.43-2.573.383h-.018a6.43 6.43 0 0 1-4.154-1.832l-.008-.008a6.169 6.169 0 0 1-1.831-4.108 6.092 6.092 0 0 1 .385-2.414c-2.3.462-4.178 1.987-5.105 4 3.818.658 6.943 3.474 8.194 7.213a6.706 6.706 0 0 1 3.454.615zM10.112 6.007C11.373 2.508 14.785 0 18.795 0c.977 0 1.918.149 2.8.424a4.33 4.33 0 0 0-1.968 1.622l-.016-.002a4.173 4.173 0 0 0 .586 5.23l.008.007a4.39 4.39 0 0 0 2.853 1.256h.018a4.429 4.429 0 0 0 1.882-.318 4.359 4.359 0 0 0 1.075-.626l.001.001a4.24 4.24 0 0 0 1.343-1.856 8.86 8.86 0 0 1-1.816 9.365C27.053 16.448 28 18.442 28 20.667 28 24.717 24.866 28 21 28H10.5C4.701 28 0 23.075 0 17 0 11.061 4.493 6.221 10.112 6.007zM10.553 26H10.5C5.892 26 2 22.06 2 17c0-5.06 3.892-9 8.5-9 3.586 0 6.739 2.387 7.96 5.83l-.002.002c.224.63.384 1.295.47 1.984A4.721 4.721 0 0 1 21 15.333c2.675 0 5 2.3 5 5.334S23.675 26 21 26H10.553z" fill="#fff"/></svg>