<svg width="88" height="48" fill="none" xmlns="http://www.w3.org/2000/svg"><path d="M42.948 41.758a2.08 2.08 0 0 0 2.24.019c1.768-1.11.982-3.84-1.105-3.84-2.068 0-2.868 2.691-1.135 3.82z" fill="#FA9F42"/><path d="M5.014 39.06H33.75c1.837 0 3.636.531 5.179 1.53v0a9.537 9.537 0 0 0 10.266.057l.127-.08a9.773 9.773 0 0 1 5.213-1.507h27.771" stroke="#D0D0D0" stroke-width="10" stroke-linecap="round"/><mask id="a" style="mask-type:alpha" maskUnits="userSpaceOnUse" x="3" y="0" width="81" height="38"><rect x="3" width="80.781" height="37.937" rx="18.968" fill="#C4C4C4"/></mask><g mask="url(#a)"><path d="M43.524 64.016c15.86 0 28.716-11.918 28.716-26.62 0-14.702-12.857-26.62-28.716-26.62-15.86 0-28.716 11.918-28.716 26.62 0 14.702 12.856 26.62 28.716 26.62z" fill="#FA9E42"/><g filter="url(#b)"><path d="M40.457 32.122c10.045-4.946 15.728-13.251 12.692-18.55-3.036-5.298-13.64-5.583-23.686-.637-10.045 4.946-15.728 13.25-12.692 18.55 3.036 5.297 13.64 5.583 23.686.637z" fill="#F8E36F"/></g></g><defs><filter id="b" x="-4.046" y="-10.596" width="78.013" height="66.248" filterUnits="userSpaceOnUse" color-interpolation-filters="sRGB"><feFlood flood-opacity="0" result="BackgroundImageFix"/><feBlend in="SourceGraphic" in2="BackgroundImageFix" result="shape"/><feGaussianBlur stdDeviation="10" result="effect1_foregroundBlur_106_138"/></filter></defs></svg>