<svg width="81" height="43" fill="none" xmlns="http://www.w3.org/2000/svg"><mask id="a" style="mask-type:alpha" maskUnits="userSpaceOnUse" x="0" y="0" width="81" height="43"><rect width="80.781" height="42.309" rx="21.155" fill="#C4C4C4"/></mask><g mask="url(#a)"><path d="M40.256 68.025c15.86 0 28.716-12.992 28.716-29.02 0-16.027-12.856-29.02-28.716-29.02-15.86 0-28.716 12.993-28.716 29.02 0 16.028 12.857 29.02 28.716 29.02z" fill="#FA9E42"/><g filter="url(#b)"><path d="M37.19 33.257c10.044-5.392 15.727-14.445 12.691-20.221-3.035-5.776-13.64-6.088-23.685-.696-10.046 5.392-15.728 14.446-12.693 20.222 3.036 5.776 13.64 6.087 23.686.695z" fill="#F8E36F"/></g><path d="M47.083 38.9H34.506a1.763 1.763 0 1 0 0 3.526h12.577a1.763 1.763 0 0 0 0-3.526z" fill="#FA9F42"/><path d="M1.746 41.206h28.713c1.85 0 3.657-.552 5.19-1.587v0a9.278 9.278 0 0 1 10.291-.06l.125.083a9.503 9.503 0 0 0 5.225 1.564h27.748" stroke="#D0D0D0" stroke-width="10" stroke-linecap="round"/></g><defs><filter id="b" x="-7.314" y="-11.509" width="78.013" height="68.614" filterUnits="userSpaceOnUse" color-interpolation-filters="sRGB"><feFlood flood-opacity="0" result="BackgroundImageFix"/><feBlend in="SourceGraphic" in2="BackgroundImageFix" result="shape"/><feGaussianBlur stdDeviation="10" result="effect1_foregroundBlur_106_158"/></filter></defs></svg>