<svg width="28" height="28" fill="none" xmlns="http://www.w3.org/2000/svg"><path fill-rule="evenodd" clip-rule="evenodd" d="M0 11c0 4.761 2.918 8.816 7 10.347v-2.176C4.07 17.753 2 14.66 2 11c0-5.04 3.922-9 8.608-9 3.976 0 7.401 2.85 8.349 6.791l.003-.001c.134.547.22 1.114.25 1.696A4.54 4.54 0 0 1 21.25 10c2.555 0 4.75 2.17 4.75 5 0 2.81-2.164 4.97-4.697 5H21v1.995c.083.003.166.005.25.005 3.728 0 6.75-3.134 6.75-7s-3.022-7-6.75-7c-.145 0-.287.005-.429.014C19.566 3.39 15.469 0 10.608 0 4.75 0 0 4.925 0 11zm15.168 3.445-4 6L10.132 22h4.912l-3.188 4.415 1.621 1.17 4.334-6L18.956 20h-5.088l2.964-4.445-1.664-1.11zm3.193 10.48c-.208.486-.36 1.006-.36 1.484 0 .879.672 1.591 1.5 1.591.829 0 1.5-.712 1.5-1.59 0-.448-.168-.978-.392-1.485C20.164 23.917 19.5 23 19.5 23s-.696.886-1.14 1.924zM7 26.408c0-.478.152-.998.36-1.485C7.804 23.886 8.5 23 8.5 23s.664.918 1.109 1.925c.224.507.392 1.037.392 1.484 0 .879-.671 1.591-1.5 1.591-.828 0-1.5-.712-1.5-1.59z" fill="#fff"/></svg>